<svg width="1400.01" height="1400.01" viewBox="0 0 1050.01 1050.01" xmlns="http://www.w3.org/2000/svg"><path d="M50.03 675h522.74a73.7 73.7 0 0 1 16.73-94.5c-6.23-16.5-13.5-33.23-21-49.73a600.08 600.08 0 0 1-35.48-93.75A74.65 74.65 0 0 1 463.74 375H50.02A50.15 50.15 0 0 0 0 425.02v200.02-.05a50.15 50.15 0 0 0 50.02 50.02zm275.02-206.26h125.02-.05a18.75 18.75 0 1 1 0 37.5H325a18.75 18.75 0 1 1 0-37.5zm0 75h75-.05a18.75 18.75 0 1 1 0 37.5h-75a18.75 18.75 0 1 1 0-37.5zM99.3 524.24h-.05a18.77 18.77 0 0 1 26.53 0l24.24 24.24 74.25-74.25a18.72 18.72 0 0 1 26.43.04 18.73 18.73 0 0 1 .05 26.49l-87.52 87.51.05-.04a18.62 18.62 0 0 1-13.26 5.53c-4.97 0-9.75-1.97-13.27-5.53l-37.5-37.5a18.77 18.77 0 0 1 0-26.49z" style="fill:#f47738"/><path d="M50.03 1050h457.5c33-68.25 99.98-208.74 105.98-234a382.26 382.26 0 0 0 10.26-60 51.22 51.22 0 0 0-23.76-6H50.03A50.15 50.15 0 0 0 0 800.02v200.02-.05a50.15 50.15 0 0 0 50.02 50.02zm275.02-206.26h174.98a18.75 18.75 0 1 1 0 37.5H325a18.75 18.75 0 1 1 0-37.5zm0 75h99.98a18.75 18.75 0 1 1 0 37.5H325a18.75 18.75 0 1 1 0-37.5zM99.3 899.24h-.05a18.77 18.77 0 0 1 26.53 0l24.24 24.24 74.25-74.25a18.72 18.72 0 0 1 26.43.04 18.73 18.73 0 0 1 .05 26.49l-87.52 87.51.05-.04a18.62 18.62 0 0 1-13.26 5.53c-4.97 0-9.75-1.97-13.27-5.53l-37.5-37.5a18.77 18.77 0 0 1 0-26.49z" style="fill:#6f72af"/><path d="M50.03 300H600c27.6 0 50.01-22.4 50.01-50.01V50.02a50.01 50.01 0 0 0-50-50.02H50.03A50.03 50.03 0 0 0 0 50.02v200.02-.05c0 27.6 22.4 50.02 50.02 50.02zM325 93.74h200.02a18.75 18.75 0 1 1 0 37.5H325a18.75 18.75 0 1 1 0-37.5zm0 75h100.03a18.75 18.75 0 1 1 0 37.5H325a18.75 18.75 0 1 1 0-37.5zm-225.74-19.5a18.77 18.77 0 0 1 26.53 0l24.23 24.24 74.25-74.25a18.72 18.72 0 0 1 26.44.04 18.73 18.73 0 0 1 .05 26.49l-87.52 87.51.05-.04a18.62 18.62 0 0 1-13.27 5.53 18.6 18.6 0 0 1-13.26-5.53l-37.5-37.5a18.77 18.77 0 0 1 0-26.48z" style="fill:#28a197"/><path d="M900 825a482.22 482.22 0 0 1-12.5-150h25.02a37.52 37.52 0 0 0 37.5-37.5 37.52 37.52 0 0 0-37.5-37.5H637.5a37.49 37.49 0 0 0-37.5 37.5 37.49 37.49 0 0 0 37.5 37.5h24.99A481.2 481.2 0 0 1 600 950.02c-16.69 33.33-33.33 66.66-50.01 99.99h450c-16.7-33.33-33.33-66.66-50.02-99.99h.05A481.84 481.84 0 0 1 900 825zM578.77 420l-14.25-10.5 4.5 17.02a649.05 649.05 0 0 0 33.75 88.5 660.35 660.35 0 0 0 31.73 60h281.02a672.18 672.18 0 0 0 31.74-60 649.08 649.08 0 0 0 33.75-88.5l4.5-17.02-14.25 10.5a866.42 866.42 0 0 1-54.99 37.27c-20.25 12.23-41.01 23.76-62.48 33.98h-.05a575.79 575.79 0 0 0-28.73-69 590.83 590.83 0 0 0-44.77-75.75l-5.25-7.5-5.25 7.5a585.34 585.34 0 0 0-44.72 75.75 575.99 575.99 0 0 0-28.78 69c-21.52-10.26-42.23-21.75-62.48-33.98A852.5 852.5 0 0 1 578.77 420z" style="fill:#0b0c0c"/><path d="M812.49 275.02c0 49.97-75 49.97-75 0 0-50.01 75-50.01 75 0m-237.46 87.46c0 50.02-75 50.02-75 0 0-49.97 75-49.97 75 0m474.97 0c0 50.02-75 50.02-75 0 0-49.97 75-49.97 75 0" style="fill:#e52d13"/></svg>